<?xml version="1.0" encoding="utf-8"?>
<svg viewBox="20 20 100 100" width="100" height="100" xmlns="http://www.w3.org/2000/svg">
  <path d="M 28 20 L 112 20 C 116.418 20 120 23.582 120 28 L 120 112 C 120 116.418 116.418 120 112 120 L 28 120 C 23.582 120 20 116.418 20 112 L 20 28 C 20 23.582 23.582 20 28 20 Z M 30 38 L 30 102 C 30 106.418 33.582 110 38 110 L 102 110 C 106.418 110 110 106.418 110 102 L 110 38 C 110 33.582 106.418 30 102 30 L 38 30 C 33.582 30 30 33.582 30 38 Z" style="fill: #00A896;"/>
  <path d="M 58.973 40 L 96.433 40 C 98.402 40 100 41.598 100 43.567 L 100 81.027 C 100 82.998 98.402 84.595 96.433 84.595 L 91.892 84.595 L 91.892 80.135 L 91.973 80.135 C 93.943 80.135 95.54 78.538 95.54 76.567 L 95.54 48.027 C 95.54 46.057 93.943 44.46 91.973 44.46 L 63.433 44.46 C 61.463 44.46 59.865 46.057 59.865 48.027 L 59.865 48.108 L 55.405 48.108 L 55.405 43.567 C 55.405 41.598 57.003 40 58.973 40 Z" style="fill: #00A896;"/>
  <path d="M 51.676 47.298 L 89.135 47.298 C 91.105 47.298 92.702 48.895 92.702 50.865 L 92.702 88.324 C 92.702 90.295 91.105 91.892 89.135 91.892 L 82.973 91.892 L 82.973 87.433 L 84.676 87.433 C 86.646 87.433 88.243 85.835 88.243 83.865 L 88.243 55.324 C 88.243 53.355 86.646 51.757 84.676 51.757 L 56.135 51.757 C 54.166 51.757 52.567 53.355 52.567 55.324 L 52.567 55.405 L 48.108 55.405 L 48.108 50.865 C 48.108 48.895 49.706 47.298 51.676 47.298 Z" style="fill: #00A896;"/>
  <path d="M 43.567 55.405 L 81.027 55.405 C 82.998 55.405 84.595 57.003 84.595 58.973 L 84.595 96.433 C 84.595 98.402 82.998 100 81.027 100 L 43.567 100 C 41.598 100 40 98.402 40 96.433 L 40 58.973 C 40 57.003 41.598 55.405 43.567 55.405 Z M 44.46 63.433 L 44.46 91.973 C 44.46 93.943 46.057 95.54 48.027 95.54 L 76.567 95.54 C 78.538 95.54 80.135 93.943 80.135 91.973 L 80.135 63.433 C 80.135 61.463 78.538 59.865 76.567 59.865 L 48.027 59.865 C 46.057 59.865 44.46 61.463 44.46 63.433 Z" style="fill: #00A896;"/>
</svg>