<svg
  width="62"
  height="57"
  viewBox="0 0 62 57"
  fill="none"
  xmlns="http://www.w3.org/2000/svg"
>
<defs>
      <filter xmlns="http://www.w3.org/2000/svg" id="dropshadow" height="130%">
        <feGaussianBlur in="SourceAlpha" stdDeviation="3" />
        <feOffset dx="2" dy="2" result="offsetblur" />
        <feComponentTransfer>
          <feFuncA type="linear" slope="0.4" />
        </feComponentTransfer>
        <feMerge>
          <feMergeNode />
          <feMergeNode in="SourceGraphic" />
        </feMerge>
      </filter>
    </defs>
<path
    d="M30.5849 54.4255C45.1466 54.4255 56.9513 42.6197 56.9513 28.0566C56.9513 13.4934 45.1466 1.68762 30.5849 1.68762C16.0231 1.68762 4.21851 13.4934 4.21851 28.0566C4.21851 42.6197 16.0231 54.4255 30.5849 54.4255Z"
    fill="#00A896"
    filter="url(#dropshadow)"
  />
<path
    fill-rule="evenodd"
    clip-rule="evenodd"
    d="M5.28662 35.7208C6.55164 35.1105 7.62346 34.3661 8.5485 33.5326C11.1427 31.1953 12.736 28.0259 14.0801 24.6269C14.4782 23.62 14.8297 22.6614 15.1814 21.7022H15.1814C15.4395 20.9983 15.6977 20.2941 15.9747 19.5699C16.6014 17.9314 17.2791 16.3187 18.1138 14.9049C18.9513 13.4861 19.9868 12.1976 21.3648 11.2674C22.7646 10.3224 24.4265 9.8092 26.4012 9.8092C28.3534 9.8092 29.9586 10.2851 31.2663 11.2184C32.5539 12.1372 33.4206 13.4051 34.0717 14.7601C34.7172 16.1029 35.1977 17.6336 35.6501 19.1482C35.7202 19.3825 35.7896 19.6168 35.8592 19.8513C36.2496 21.1687 36.6411 22.4895 37.1334 23.8134C38.28 26.8973 39.9109 29.8101 43.023 31.9878C45.7487 33.8948 49.7591 35.3407 55.8953 35.6803C55.5848 36.742 55.2096 37.7761 54.7738 38.7779C48.7198 38.3223 44.3816 36.8 41.2094 34.5806C37.3684 31.8931 35.4331 28.3191 34.1677 24.9163C33.6347 23.4829 33.2092 22.0461 32.8199 20.7311C32.7517 20.5015 32.6849 20.2756 32.6186 20.0541C32.1628 18.528 31.7439 17.2208 31.2202 16.131C30.7021 15.0534 30.1294 14.2943 29.4285 13.7942C28.7478 13.3084 27.8153 12.9735 26.4012 12.9735C25.0097 12.9735 23.9738 13.3238 23.135 13.8901C22.2741 14.4712 21.5302 15.3416 20.8383 16.5136C20.1435 17.6906 19.5418 19.1004 18.9299 20.7003C18.6907 21.3259 18.4407 22.0062 18.1826 22.7089L18.1825 22.7091C17.8104 23.7221 17.4212 24.7817 17.0223 25.7905C15.6346 29.3001 13.8231 33.0394 10.6662 35.8834C9.43021 36.9973 8.01061 37.9541 6.36682 38.7098C5.94909 37.7419 5.58764 36.7443 5.28662 35.7208Z"
    fill="white"
  />
<path
    d="M41.4957 12.7825L6.61035 29.0514L5.2732 26.1836L40.1586 9.9147L41.4957 12.7825Z"
    fill="#00A896"
  />
</svg>
