<?xml version="1.0" encoding="utf-8"?>
<svg viewBox="20 21 100 100" width="100" height="100" xmlns="http://www.w3.org/2000/svg" xmlns:bx="https://boxy-svg.com">
  <path d="M 28 21 L 112 21 C 116.418 21 120 24.582 120 29 L 120 113 C 120 117.418 116.418 121 112 121 L 28 121 C 23.582 121 20 117.418 20 113 L 20 29 C 20 24.582 23.582 21 28 21 Z M 30 39 L 30 103 C 30 107.418 33.582 111 38 111 L 102 111 C 106.418 111 110 107.418 110 103 L 110 39 C 110 34.582 106.418 31 102 31 L 38 31 C 33.582 31 30 34.582 30 39 Z" style="fill: #00A896;"/>
  <path d="M 209.818 92.842 Q 211.961 90.699 214.103 92.842 L 231.246 109.985 Q 233.389 112.128 229.103 112.128 L 194.818 112.128 Q 190.532 112.128 192.675 109.985 Z" style="stroke-linecap: round; stroke-linejoin: round; fill: #00A896;" transform="matrix(1, 0.000009, -0.000009, 1, -141.95946, -45.77266)" bx:shape="triangle 190.532 90.699 42.857 21.429 0.5 0.1 1@a67f58ee"/>
  <path style="fill: #00A896;" d="M 62.5 66 H 77.5 V 94 A 2 2 0 0 1 75.5 96 H 64.5 A 2 2 0 0 1 62.5 94 V 66 Z" bx:shape="rect 62.5 66 15 30 0 0 2 2 1@1d310e2e"/>
</svg>